inDegrees=yes
name=ik_XSDot_20240315_154947_orientations
DataType=double
version=3
OpenSimVersion=4.5-2024-01-10-34fd6af
endheader
time	pelvis_tilt	pelvis_list	pelvis_rotation	pelvis_tx	pelvis_ty	pelvis_tz	hip_flexion_r	hip_adduction_r	hip_rotation_r	knee_angle_r	ankle_angle_r	subtalar_angle_r	mtp_angle_r	hip_flexion_l	hip_adduction_l	hip_rotation_l	knee_angle_l	ankle_angle_l	subtalar_angle_l	mtp_angle_l	lumbar_extension	lumbar_bending	lumbar_rotation
1.260000000000001	42.28556883110686	3.043552207570614	17.87377044226794	0	0.95	0	1.936924312109627	-6.64872703617162	43.94072813205568	1.877951794420226	0	0	0	-7.319566070253568	1.554259176534261	-40.22483488768156	0.9501618622726065	0	0	0	0	0	0
1.270000000000001	42.35848098146322	2.827004248003862	17.12917314280952	0	0.95	0	1.836466956290835	-6.446401529833818	44.78704058905347	1.953086785193558	0	0	0	-7.116176175872629	1.176121188986944	-41.09111913304687	0.6745292478074297	0	0	0	0	0	0
1.280000000000001	42.37603841095521	2.547312409347498	16.40180758267301	0	0.95	0	1.695140522384748	-6.30254952947196	45.60399589765952	2.127825013361498	0	0	0	-7.000393546552022	0.861773720986386	-41.93271283422375	0.6682174539336205	0	0	0	0	0	0
1.290000000000001	42.42026247359365	2.218632143680602	15.67978353095831	0	0.95	0	1.451593109604456	-6.209067349335239	46.43231901272407	2.445980975981369	0	0	0	-6.909249276434381	0.4399911441834283	-42.79984223613307	0.6897913940269215	0	0	0	0	0	0
1.300000000000001	42.4633854165712	1.852324048270916	14.9214666893175	0	0.95	0	1.160560085795407	-6.135980182544942	47.3039329636507	2.873478893747155	0	0	0	-6.766635339667841	-0.09469052965197555	-43.71669681879035	0.5699365943562195	0	0	0	0	0	0
1.310000000000001	42.47738789774376	1.496604584046417	14.11585211954678	0	0.95	0	0.9460718454452051	-6.074792547100631	48.2318893165246	3.372583991361485	0	0	0	-6.597026883994337	-0.627263450159658	-44.6549293642435	0.4219761285808933	0	0	0	0	0	0
1.320000000000001	42.46240102194034	1.174177969020168	13.31699788957232	0	0.95	0	0.7663073424341027	-6.063646685534763	49.17022755194584	3.825578286279072	0	0	0	-6.443472786210003	-1.117125932143851	-45.60097329601295	0.2809639961182551	0	0	0	0	0	0
1.330000000000001	42.37684011273531	0.8618311957261857	12.5482784941486	0	0.95	0	0.6767899521021239	-6.035237527157875	50.07601518503176	4.259740847099645	0	0	0	-6.235106000956431	-1.541746330684487	-46.48860591518218	0.09491284725415361	0	0	0	0	0	0
1.340000000000001	42.24861318204811	0.5578175022520676	11.8085164426426	0	0.95	0	0.6719894387273463	-5.959752298860195	50.93973133576599	4.554545503213722	0	0	0	-6.053067873982326	-1.898155266075595	-47.35413743038858	0.009589479009585143	0	0	0	0	0	0
1.350000000000001	42.12297569410024	0.2786992931614637	11.21414037789841	0	0.95	0	0.647002392905445	-5.928287081252409	51.68558093284029	4.873644908743713	0	0	0	-5.943040542301592	-2.248575992067875	-48.08639040242925	-0.08240657190775184	0	0	0	0	0	0
1.360000000000001	42.01986139210207	0.02455348647804266	10.6232168382217	0	0.95	0	0.5427572727641548	-5.952230596922607	52.48078109912535	5.311213031148414	0	0	0	-5.937991953466192	-2.555116305111342	-48.83844382324664	-0.4267128471363288	0	0	0	0	0	0
1.370000000000001	41.93081841082751	-0.2078222782420201	10.10763867932524	0	0.95	0	0.4635586081567635	-5.975649317226146	53.22728207937874	5.73327103858068	0	0	0	-6.028879032090574	-2.771125667088833	-49.51279017517496	-0.7902433919117589	0	0	0	0	0	0
1.380000000000001	41.82651269703005	-0.4219475410349466	9.638281086651361	0	0.95	0	0.3492791060634077	-6.035520357450888	53.91474186345813	6.174932184987214	0	0	0	-6.236804813710971	-2.917462882842559	-50.14136738733134	-1.011259705871317	0	0	0	0	0	0
1.390000000000001	41.70460161774803	-0.6257483487662705	9.282444062457765	0	0.95	0	0.2446555127355559	-6.081886681775302	54.51416069030972	6.511259052669183	0	0	0	-6.507926427797007	-3.018248780435063	-50.64265569873334	-1.013974296485872	0	0	0	0	0	0
1.400000000000001	41.59346054750249	-0.8389097982251166	8.91163375392879	0	0.95	0	0.102728854072632	-6.125328685554377	55.12719620211175	6.873104601505228	0	0	0	-6.710391137959768	-3.244359927510128	-51.22289132460335	-0.9049123693747213	0	0	0	0	0	0
1.410000000000001	41.51099545155565	-1.064026937428639	8.588289615260811	0	0.95	0	-0.139223859887597	-6.179845690341268	55.72636412693194	7.230278025869928	0	0	0	-6.872362552753218	-3.661710722081224	-51.8346378642918	-0.7305257431479196	0	0	0	0	0	0
1.420000000000001	41.47634084486478	-1.251575458849361	8.330532654012748	0	0.95	0	-0.3828617796814062	-6.195526811378175	56.26181274235723	7.572940606488183	0	0	0	-6.992394518202943	-4.189757528327715	-52.40546328144865	-0.5518610337759742	0	0	0	0	0	0
1.430000000000001	41.440859116117	-1.395480281974588	8.034613490491815	0	0.95	0	-0.5502163304264868	-6.266533579293352	56.87980135006196	7.984836456904004	0	0	0	-7.097519062195627	-4.629379511876064	-53.02147196858174	-0.3754348823520036	0	0	0	0	0	0
1.440000000000001	41.32762034028244	-1.481398755205288	7.732733637474551	0	0.95	0	-0.5687643448309937	-6.366769159382723	57.5283269339261	8.342049554707739	0	0	0	-7.232215841228375	-4.815390434976271	-53.62420342345303	-0.2589567311696911	0	0	0	0	0	0
1.450000000000001	41.01330207544869	-1.525966392020891	7.539578572125383	0	0.95	0	-0.4353418224880381	-6.540900967088129	58.013898826908	8.691108525356125	0	0	0	-7.353075919484927	-4.820500735638824	-54.07523239124477	-0.1286893877132802	0	0	0	0	0	0
1.460000000000001	40.51174201257656	-1.536540152902106	7.393804966048612	0	0.95	0	-0.07399239569370065	-6.69503098977476	58.49067236281391	8.980120926827725	0	0	0	-7.396196024452269	-4.725432712682552	-54.43961887588891	-0.01324959085481184	0	0	0	0	0	0
1.470000000000001	39.89657919228878	-1.547186515679715	7.285842608667828	0	0.95	0	0.4509015138011532	-6.806333941587489	58.96685964266476	9.102595275341573	0	0	0	-7.353280981327053	-4.637264729612614	-54.75697327398036	0.1885447145196026	0	0	0	0	0	0
1.480000000000001	39.3442096512223	-1.572658031856591	7.256577589069771	0	0.95	0	0.9538254263124279	-6.773332094638313	59.35080589693457	9.050252707061373	0	0	0	-7.345302411080528	-4.583268963672796	-54.98752644578031	0.5657791608002922	0	0	0	0	0	0
1.490000000000001	38.86622806973747	-1.610832139918874	7.235598046819977	0	0.95	0	1.45882499623025	-6.639329908616983	59.72337780297828	8.946676389004324	0	0	0	-7.37558266352267	-4.605083684333786	-55.25937403808548	0.9917269646903868	0	0	0	0	0	0
1.500000000000001	38.44222126612267	-1.706678991977565	7.226099536306234	0	0.95	0	1.856242979878376	-6.497015130198006	60.06255303706227	8.784485599605901	0	0	0	-7.534723119334716	-4.568605679298136	-55.55119352390744	1.65517781036465	0	0	0	0	0	0
1.510000000000001	37.99343308241155	-1.862112069857045	7.24120568914652	0	0.95	0	2.168782428113264	-6.435620639246209	60.38688481173133	8.604741332482096	0	0	0	-7.803204523762647	-4.401556292085406	-55.83253315205417	2.609326684562634	0	0	0	0	0	0
1.520000000000001	37.54424577498411	-1.999326732178057	7.294018407611423	0	0.95	0	2.391706243477584	-6.470860949302166	60.67607528834615	8.390433048127568	0	0	0	-8.145662460487122	-4.141107315275031	-56.05121623262851	3.483659098372915	0	0	0	0	0	0
1.530000000000001	37.08459228328833	-2.146558794142555	7.409819601191841	0	0.95	0	2.53941571185843	-6.567038237192146	60.87324782459818	8.120697516068658	0	0	0	-8.530237286972097	-3.811357616640501	-56.20178438748423	4.318421628636311	0	0	0	0	0	0
1.540000000000001	36.69157874837807	-2.254420725980144	7.545382785309913	0	0.95	0	2.613510798548312	-6.71653721897329	61.11550155262345	7.964991163455116	0	0	0	-8.944952548647557	-3.468804262806902	-56.32850116919562	4.87305944762661	0	0	0	0	0	0
1.550000000000001	36.32928778383441	-2.361283981609185	7.705947463954436	0	0.95	0	2.749780053890242	-6.788721471815788	61.33593103185392	7.869819354769051	0	0	0	-9.341605742843504	-3.133600415046453	-56.41561457193435	5.287885022808702	0	0	0	0	0	0
1.560000000000001	35.92374562909292	-2.461656524613492	7.854242702880259	0	0.95	0	2.900584431930231	-6.947610856743706	61.60040285931582	7.748605695178337	0	0	0	-9.665003972773961	-2.819525710541905	-56.51099902314773	5.706785485561072	0	0	0	0	0	0
1.570000000000001	35.50127481660175	-2.567290814493988	8.033971319918114	0	0.95	0	3.038204539047932	-7.149423277974654	61.8573434190617	7.84693661925166	0	0	0	-9.901854518770703	-2.585591008133696	-56.57150102816088	5.997496420129638	0	0	0	0	0	0
1.580000000000001	35.09356251932373	-2.70383876939858	8.250292611645635	0	0.95	0	3.153874846376332	-7.322141250876468	62.0885672575301	7.952606875616849	0	0	0	-10.08895858523454	-2.463520658845978	-56.62632030153966	6.310380491815688	0	0	0	0	0	0
1.590000000000001	34.7219463774432	-2.834662540030907	8.446370444553445	0	0.95	0	3.237164218913436	-7.44580128665813	62.3473305486097	8.060694029671239	0	0	0	-10.29277755769959	-2.380708624258748	-56.70441617949294	6.612528879080556	0	0	0	0	0	0
1.600000000000001	34.40675560118071	-2.95836498701089	8.653696114506801	0	0.95	0	3.333704470504984	-7.502961117779765	62.62992562116549	8.167300849218115	0	0	0	-10.55710546117868	-2.285083982401073	-56.78601407516008	6.845211476449334	0	0	0	0	0	0
1.610000000000001	34.16745782129514	-3.061052847227645	8.846315201261959	0	0.95	0	3.390369293230956	-7.484163743190491	62.90931005105779	8.133467251314007	0	0	0	-10.91110751934056	-2.100335508349822	-56.92107034825798	7.081347779183596	0	0	0	0	0	0
1.620000000000001	33.99073815978987	-3.138965124100743	9.005258793061428	0	0.95	0	3.411305554836113	-7.423214133832063	63.21383215854927	8.049001129983504	0	0	0	-11.32418829704668	-1.873785259432752	-57.10565580824476	7.352881080058271	0	0	0	0	0	0
1.630000000000001	33.82366933092333	-3.161921741962794	9.101673242134439	0	0.95	0	3.450079049618244	-7.362434073190586	63.56500028577657	7.955383808796943	0	0	0	-11.71819859849348	-1.614955611632636	-57.394101490526	7.568006736391045	0	0	0	0	0	0
1.640000000000001	33.6262076605602	-3.153705201374332	9.26122342137332	0	0.95	0	3.554869922391721	-7.341231037790585	63.88872373717891	7.834598024325667	0	0	0	-12.02924974053866	-1.381927464624263	-57.6590155978703	7.794819805913062	0	0	0	0	0	0
1.650000000000001	33.4119332492026	-3.124137970820362	9.481106316228448	0	0.95	0	3.696925387673133	-7.33210784157097	64.14526427690667	7.627177039632636	0	0	0	-12.29713194481942	-1.145972259893705	-57.87637564082743	7.977888391444344	0	0	0	0	0	0
